<svg width="35" height="35" viewBox="0 0 35 35" fill="none" xmlns="http://www.w3.org/2000/svg">
<path fill-rule="evenodd" clip-rule="evenodd" d="M0.820944 3.9304C0 5.51078 0 7.58705 0 11.7396V23.2604C0 27.413 0 29.4892 0.820944 31.0696C1.51274 32.4014 2.59862 33.4873 3.9304 34.1791C5.51078 35 7.58705 35 11.7396 35H23.2604C27.413 35 29.4892 35 31.0696 34.1791C32.4014 33.4873 33.4873 32.4014 34.1791 31.0696C35 29.4892 35 27.413 35 23.2604V11.7396C35 7.58705 35 5.51078 34.1791 3.9304C33.4873 2.59862 32.4014 1.51274 31.0696 0.820944C29.4892 0 27.413 0 23.2604 0H11.7396C7.58705 0 5.51078 0 3.9304 0.820944C2.59862 1.51274 1.51274 2.59862 0.820944 3.9304ZM25.0833 17.5L24.3056 22.3611H20.4167V35H14.5833V22.3611H10.2083V17.5H14.5833V13.6111C14.5833 9.2361 17.4028 6.80554 21.3889 6.80554C22.6528 6.80554 24.0139 6.99999 25.2778 7.19443V11.6667H23.0417C20.9028 11.6667 20.4167 12.7361 20.4167 14.0972V17.5H25.0833Z" fill="#EDA10F"/>
</svg>
