<svg width="35" height="35" viewBox="0 0 35 35" fill="none" xmlns="http://www.w3.org/2000/svg">
<g clip-path="url(#clip0_53_125)">
<path fill-rule="evenodd" clip-rule="evenodd" d="M0.840902 3.9304C0.0199585 5.51078 0.0199585 7.58705 0.0199585 11.7396V23.2604C0.0199585 27.413 0.0199585 29.4892 0.840902 31.0696C1.5327 32.4014 2.61858 33.4873 3.95035 34.1791C5.53074 35 7.60701 35 11.7595 35H23.2804C27.4329 35 29.5092 35 31.0896 34.1791C32.4213 33.4873 33.5072 32.4014 34.199 31.0696C35.02 29.4892 35.02 27.413 35.02 23.2604V11.7396C35.02 7.58705 35.02 5.51078 34.199 3.9304C33.5072 2.59862 32.4213 1.51274 31.0896 0.820944C29.5092 0 27.4329 0 23.2804 0H11.7595C7.60701 0 5.53074 0 3.95035 0.820944C2.61858 1.51274 1.5327 2.59862 0.840902 3.9304ZM12.2528 4.84963C13.6103 4.78785 14.0441 4.77274 17.5005 4.77274H17.4965C20.954 4.77274 21.3862 4.78785 22.7437 4.84963C24.0986 4.91168 25.024 5.12619 25.8353 5.44092C26.6731 5.76573 27.3811 6.20058 28.089 6.90854C28.7969 7.61596 29.2318 8.32603 29.5579 9.16312C29.8708 9.97236 30.0855 10.8972 30.1492 12.2521C30.2102 13.6097 30.2261 14.0435 30.2261 17.5C30.2261 20.9565 30.2102 21.3893 30.1492 22.7468C30.0855 24.1012 29.8708 25.0263 29.5579 25.8358C29.2318 26.6727 28.7969 27.3827 28.089 28.0902C27.3819 28.7981 26.6729 29.234 25.8361 29.5591C25.0263 29.8738 24.1005 30.0883 22.7456 30.1504C21.388 30.2122 20.9556 30.2273 17.4989 30.2273C14.0428 30.2273 13.6093 30.2122 12.2517 30.1504C10.8971 30.0883 9.97202 29.8738 9.16228 29.5591C8.32575 29.234 7.61569 28.7981 6.90856 28.0902C6.20089 27.3827 5.76605 26.6727 5.44072 25.8356C5.12626 25.0263 4.91176 24.1015 4.84945 22.7466C4.78794 21.389 4.77256 20.9565 4.77256 17.5C4.77256 14.0435 4.78847 13.6094 4.84919 12.2519C4.91017 10.8975 5.12493 9.97236 5.44046 9.16285C5.76658 8.32603 6.20142 7.61596 6.90935 6.90854C7.61675 6.20085 8.32681 5.766 9.16387 5.44092C9.97308 5.12619 10.8979 4.91168 12.2528 4.84963ZM17.0763 7.06618C16.819 7.06606 16.5805 7.06595 16.3588 7.0663V7.06312C13.9868 7.06577 13.5318 7.08168 12.3578 7.13471C11.1169 7.19172 10.4432 7.39853 9.99456 7.57353C9.40064 7.80475 8.97641 8.0805 8.53097 8.52596C8.08553 8.97141 7.80925 9.39566 7.57857 9.9896C7.40437 10.4382 7.19703 11.1117 7.14029 12.3526C7.07931 13.6943 7.06711 14.0952 7.06711 17.4939C7.06711 20.8926 7.07931 21.2957 7.14029 22.6373C7.19677 23.8782 7.40437 24.5517 7.57857 24.9998C7.80978 25.594 8.08553 26.0172 8.53097 26.4627C8.97641 26.9081 9.40064 27.1839 9.99456 27.4146C10.4434 27.5888 11.1169 27.7961 12.3578 27.8534C13.6994 27.9144 14.1022 27.9276 17.5005 27.9276C20.8986 27.9276 21.3016 27.9144 22.6432 27.8534C23.8841 27.7966 24.5581 27.5898 25.0062 27.4148C25.6004 27.1841 26.0233 26.9084 26.4687 26.4629C26.9142 26.0177 27.1904 25.5948 27.4211 25.0009C27.5953 24.5528 27.8027 23.8793 27.8594 22.6384C27.9204 21.2967 27.9336 20.8937 27.9336 17.4971C27.9336 14.1005 27.9204 13.6975 27.8594 12.3558C27.8029 11.1149 27.5953 10.4414 27.4211 9.99331C27.1899 9.39937 26.9142 8.97513 26.4687 8.52967C26.0235 8.08422 25.6001 7.80846 25.0062 7.57778C24.5576 7.40357 23.8841 7.19622 22.6432 7.13948C21.3013 7.0785 20.8986 7.0663 17.5005 7.0663C17.3536 7.0663 17.2123 7.06624 17.0763 7.06618ZM22.7668 10.7063C22.7668 9.86285 23.4509 9.17956 24.294 9.17956V9.17903C25.1372 9.17903 25.8212 9.86312 25.8212 10.7063C25.8212 11.5495 25.1372 12.2336 24.294 12.2336C23.4509 12.2336 22.7668 11.5495 22.7668 10.7063ZM10.9647 17.5C10.9647 13.8906 13.891 10.9642 17.5002 10.964C21.1096 10.964 24.0352 13.8905 24.0352 17.5C24.0352 21.1095 21.1099 24.0347 17.5005 24.0347C13.8911 24.0347 10.9647 21.1095 10.9647 17.5ZM21.7428 17.5C21.7428 15.1569 19.8433 13.2576 17.5005 13.2576C15.1574 13.2576 13.2582 15.1569 13.2582 17.5C13.2582 19.8429 15.1574 21.7424 17.5005 21.7424C19.8433 21.7424 21.7428 19.8429 21.7428 17.5Z" fill="url(#paint0_radial_53_125)"/>
<path fill-rule="evenodd" clip-rule="evenodd" d="M0.840902 3.9304C0.0199585 5.51078 0.0199585 7.58705 0.0199585 11.7396V23.2604C0.0199585 27.413 0.0199585 29.4892 0.840902 31.0696C1.5327 32.4014 2.61858 33.4873 3.95035 34.1791C5.53074 35 7.60701 35 11.7595 35H23.2804C27.4329 35 29.5092 35 31.0896 34.1791C32.4213 33.4873 33.5072 32.4014 34.199 31.0696C35.02 29.4892 35.02 27.413 35.02 23.2604V11.7396C35.02 7.58705 35.02 5.51078 34.199 3.9304C33.5072 2.59862 32.4213 1.51274 31.0896 0.820944C29.5092 0 27.4329 0 23.2804 0H11.7595C7.60701 0 5.53074 0 3.95035 0.820944C2.61858 1.51274 1.5327 2.59862 0.840902 3.9304ZM12.2528 4.84963C13.6103 4.78785 14.0441 4.77274 17.5005 4.77274H17.4965C20.954 4.77274 21.3862 4.78785 22.7437 4.84963C24.0986 4.91168 25.024 5.12619 25.8353 5.44092C26.6731 5.76573 27.3811 6.20058 28.089 6.90854C28.7969 7.61596 29.2318 8.32603 29.5579 9.16312C29.8708 9.97236 30.0855 10.8972 30.1492 12.2521C30.2102 13.6097 30.2261 14.0435 30.2261 17.5C30.2261 20.9565 30.2102 21.3893 30.1492 22.7468C30.0855 24.1012 29.8708 25.0263 29.5579 25.8358C29.2318 26.6727 28.7969 27.3827 28.089 28.0902C27.3819 28.7981 26.6729 29.234 25.8361 29.5591C25.0263 29.8738 24.1005 30.0883 22.7456 30.1504C21.388 30.2122 20.9556 30.2273 17.4989 30.2273C14.0428 30.2273 13.6093 30.2122 12.2517 30.1504C10.8971 30.0883 9.97202 29.8738 9.16228 29.5591C8.32575 29.234 7.61569 28.7981 6.90856 28.0902C6.20089 27.3827 5.76605 26.6727 5.44072 25.8356C5.12626 25.0263 4.91176 24.1015 4.84945 22.7466C4.78794 21.389 4.77256 20.9565 4.77256 17.5C4.77256 14.0435 4.78847 13.6094 4.84919 12.2519C4.91017 10.8975 5.12493 9.97236 5.44046 9.16285C5.76658 8.32603 6.20142 7.61596 6.90935 6.90854C7.61675 6.20085 8.32681 5.766 9.16387 5.44092C9.97308 5.12619 10.8979 4.91168 12.2528 4.84963ZM17.0763 7.06618C16.819 7.06606 16.5805 7.06595 16.3588 7.0663V7.06312C13.9868 7.06577 13.5318 7.08168 12.3578 7.13471C11.1169 7.19172 10.4432 7.39853 9.99456 7.57353C9.40064 7.80475 8.97641 8.0805 8.53097 8.52596C8.08553 8.97141 7.80925 9.39566 7.57857 9.9896C7.40437 10.4382 7.19703 11.1117 7.14029 12.3526C7.07931 13.6943 7.06711 14.0952 7.06711 17.4939C7.06711 20.8926 7.07931 21.2957 7.14029 22.6373C7.19677 23.8782 7.40437 24.5517 7.57857 24.9998C7.80978 25.594 8.08553 26.0172 8.53097 26.4627C8.97641 26.9081 9.40064 27.1839 9.99456 27.4146C10.4434 27.5888 11.1169 27.7961 12.3578 27.8534C13.6994 27.9144 14.1022 27.9276 17.5005 27.9276C20.8986 27.9276 21.3016 27.9144 22.6432 27.8534C23.8841 27.7966 24.5581 27.5898 25.0062 27.4148C25.6004 27.1841 26.0233 26.9084 26.4687 26.4629C26.9142 26.0177 27.1904 25.5948 27.4211 25.0009C27.5953 24.5528 27.8027 23.8793 27.8594 22.6384C27.9204 21.2967 27.9336 20.8937 27.9336 17.4971C27.9336 14.1005 27.9204 13.6975 27.8594 12.3558C27.8029 11.1149 27.5953 10.4414 27.4211 9.99331C27.1899 9.39937 26.9142 8.97513 26.4687 8.52967C26.0235 8.08422 25.6001 7.80846 25.0062 7.57778C24.5576 7.40357 23.8841 7.19622 22.6432 7.13948C21.3013 7.0785 20.8986 7.0663 17.5005 7.0663C17.3536 7.0663 17.2123 7.06624 17.0763 7.06618ZM22.7668 10.7063C22.7668 9.86285 23.4509 9.17956 24.294 9.17956V9.17903C25.1372 9.17903 25.8212 9.86312 25.8212 10.7063C25.8212 11.5495 25.1372 12.2336 24.294 12.2336C23.4509 12.2336 22.7668 11.5495 22.7668 10.7063ZM10.9647 17.5C10.9647 13.8906 13.891 10.9642 17.5002 10.964C21.1096 10.964 24.0352 13.8905 24.0352 17.5C24.0352 21.1095 21.1099 24.0347 17.5005 24.0347C13.8911 24.0347 10.9647 21.1095 10.9647 17.5ZM21.7428 17.5C21.7428 15.1569 19.8433 13.2576 17.5005 13.2576C15.1574 13.2576 13.2582 15.1569 13.2582 17.5C13.2582 19.8429 15.1574 21.7424 17.5005 21.7424C19.8433 21.7424 21.7428 19.8429 21.7428 17.5Z" fill="#EDA10F"/>
</g>
<defs>
<radialGradient id="paint0_radial_53_125" cx="0" cy="0" r="1" gradientUnits="userSpaceOnUse" gradientTransform="translate(9.31688 37.6957) rotate(-90) scale(34.6876 32.2622)">
<stop stop-color="#FFDD55"/>
<stop offset="0.1" stop-color="#FFDD55"/>
<stop offset="0.5" stop-color="#FF543E"/>
<stop offset="1" stop-color="#C837AB"/>
</radialGradient>
<clipPath id="clip0_53_125">
<rect width="35" height="35" fill="white"/>
</clipPath>
</defs>
</svg>
