<svg width="30" height="30" viewBox="0 0 30 30" fill="none" xmlns="http://www.w3.org/2000/svg">
<path d="M26.7625 10.8C26.7625 10.8 26.7625 10.8 26.7625 10.7375C25.8817 8.33275 24.2836 6.25658 22.1844 4.7898C20.0851 3.32303 17.5859 2.53644 15.025 2.53644C12.4641 2.53644 9.96492 3.32303 7.86564 4.7898C5.76636 6.25658 4.16825 8.33275 3.2875 10.7375C3.2875 10.7375 3.2875 10.7375 3.2875 10.8C2.30391 13.5136 2.30391 16.4864 3.2875 19.2C3.2875 19.2 3.2875 19.2 3.2875 19.2625C4.16825 21.6672 5.76636 23.7434 7.86564 25.2101C9.96492 26.6769 12.4641 27.4635 15.025 27.4635C17.5859 27.4635 20.0851 26.6769 22.1844 25.2101C24.2836 23.7434 25.8817 21.6672 26.7625 19.2625C26.7625 19.2625 26.7625 19.2625 26.7625 19.2C27.7461 16.4864 27.7461 13.5136 26.7625 10.8ZM5.325 17.5C4.89153 15.8615 4.89153 14.1385 5.325 12.5H7.65C7.45004 14.1606 7.45004 15.8393 7.65 17.5H5.325ZM6.35 20H8.1C8.3934 21.1148 8.81277 22.1925 9.35 23.2125C8.12412 22.3774 7.09937 21.28 6.35 20ZM8.1 9.99997H6.35C7.08859 8.72383 8.10024 7.62681 9.3125 6.78747C8.78819 7.80903 8.38143 8.88675 8.1 9.99997ZM13.75 24.625C12.2147 23.4983 11.1364 21.8565 10.7125 20H13.75V24.625ZM13.75 17.5H10.175C9.94174 15.8415 9.94174 14.1585 10.175 12.5H13.75V17.5ZM13.75 9.99997H10.7125C11.1364 8.14343 12.2147 6.50162 13.75 5.37497V9.99997ZM23.65 9.99997H21.9C21.6066 8.88517 21.1872 7.8074 20.65 6.78747C21.8759 7.62256 22.9006 8.7199 23.65 9.99997ZM16.25 5.37497C17.7853 6.50162 18.8636 8.14343 19.2875 9.99997H16.25V5.37497ZM16.25 24.625V20H19.2875C18.8636 21.8565 17.7853 23.4983 16.25 24.625ZM19.825 17.5H16.25V12.5H19.825C20.0583 14.1585 20.0583 15.8415 19.825 17.5ZM20.6875 23.2125C21.2247 22.1925 21.6441 21.1148 21.9375 20H23.6875C22.9381 21.28 21.9134 22.3774 20.6875 23.2125ZM24.675 17.5H22.35C22.4517 16.6705 22.5018 15.8356 22.5 15C22.5014 14.1644 22.4513 13.3294 22.35 12.5H24.675C25.1085 14.1385 25.1085 15.8615 24.675 17.5Z" fill="white"/>
</svg>
