<svg width="32" height="32" viewBox="0 0 32 32" fill="none" xmlns="http://www.w3.org/2000/svg">
<g clip-path="url(#clip0_8_42)">
<path d="M19.727 2.99506V16.5179L27.4398 8.78253C25.6833 6.00139 22.9472 3.91835 19.727 2.99506Z" fill="#EDA10F"/>
<path d="M29.1963 18.9951C29.4103 18.0268 29.5341 17.0247 29.5341 16C29.5341 13.613 28.9148 11.3723 27.8339 9.42438L18.2744 18.9951H29.1963Z" fill="#EDA10F"/>
<path d="M23.0936 27.5186C25.931 25.7734 28.0704 23.0035 29.0049 19.7269H15.437L23.0936 27.5186Z" fill="#EDA10F"/>
<path d="M2.80367 13.0049C2.58974 13.9733 2.46588 14.9754 2.46588 16C2.46588 18.3983 3.09642 20.6615 4.18861 22.6094L13.7256 13.0049H2.80367Z" fill="#EDA10F"/>
<path d="M8.81634 4.53766C6.02394 6.29417 3.91838 9.03027 2.99509 12.2731H16.5292L8.81634 4.53766Z" fill="#EDA10F"/>
<path d="M13.0049 29.1963C13.9732 29.4103 14.9754 29.5341 16 29.5341C18.3307 29.5341 20.5264 28.9374 22.4518 27.9015L13.0049 18.2857V29.1963Z" fill="#EDA10F"/>
<path d="M12.2731 29.0049V15.5046L4.57144 23.2512C6.33921 26.0099 9.06405 28.0929 12.2731 29.0049Z" fill="#EDA10F"/>
<path d="M18.9951 2.80367C18.0267 2.58974 17.0246 2.46588 16 2.46588C13.6242 2.46588 11.3948 3.0739 9.45813 4.14357L18.9951 13.7143V2.80367Z" fill="#EDA10F"/>
<path d="M30.7389 9.7734C29.9282 7.87051 28.7797 6.15904 27.316 4.68402C25.8522 3.22027 24.1407 2.06052 22.2266 1.26108C20.2562 0.427868 18.1619 0 16 0C13.8381 0 11.7438 0.427868 9.7734 1.26108C7.87051 2.07178 6.15904 3.22027 4.68402 4.68402C3.22027 6.14778 2.06052 7.85925 1.26108 9.7734C0.427868 11.7438 0 13.8381 0 16C0 18.1619 0.427868 20.2562 1.26108 22.2266C2.07178 24.1295 3.22027 25.841 4.68402 27.316C6.14778 28.7797 7.85925 29.9395 9.7734 30.7389C11.7438 31.5721 13.8381 32 16 32C18.1619 32 20.2562 31.5721 22.2266 30.7389C24.1295 29.9282 25.841 28.7797 27.316 27.316C28.7797 25.8522 29.9395 24.1407 30.7389 22.2266C31.5721 20.2562 32 18.1619 32 16C32 13.8381 31.5721 11.7438 30.7389 9.7734ZM16 30.5475C7.97185 30.5475 1.4525 24.0394 1.4525 16C1.4525 7.96059 7.97185 1.4525 16 1.4525C24.0281 1.4525 30.5475 7.96059 30.5475 16C30.5475 24.0394 24.0281 30.5475 16 30.5475Z" fill="#EDA10F"/>
</g>
<defs>
<clipPath id="clip0_8_42">
<rect width="32" height="32" fill="white"/>
</clipPath>
</defs>
</svg>
