<svg width="143" height="42" viewBox="0 0 143 42" fill="none" xmlns="http://www.w3.org/2000/svg">
<path d="M42.272 12.016C40.6507 12.5493 39.392 13.4347 38.496 14.672C37.6213 15.888 37.184 17.4027 37.184 19.216C37.184 20.0267 37.2587 20.5813 37.408 20.88C37.5573 21.1787 37.632 21.36 37.632 21.424C35.3493 21.424 34.208 20.4533 34.208 18.512C34.208 17.1893 34.7093 15.8667 35.712 14.544C36.736 13.2 38.0373 12.112 39.616 11.28C41.216 10.4267 42.8053 10 44.384 10C45.1733 10 45.984 10.1493 46.816 10.448L46.08 27.312L53.12 10.448H57.728L54.368 34H49.76L51.808 19.632L45.792 34H41.408L42.048 19.568L36.704 34H34.144L42.272 12.016ZM61.8595 34.128C60.2808 34.128 59.0328 33.7227 58.1155 32.912C57.1982 32.1013 56.7395 30.8213 56.7395 29.072C56.7395 27.6213 57.0382 26.0107 57.6355 24.24C58.2328 22.4693 59.1928 20.944 60.5155 19.664C61.8382 18.3627 63.5022 17.712 65.5075 17.712C68.2382 17.712 69.6035 19.4187 69.6035 22.832V22.864C69.6675 22.8853 69.7848 22.896 69.9555 22.896C70.6595 22.896 71.4702 22.7147 72.3875 22.352C73.3048 21.968 74.1368 21.5093 74.8835 20.976L75.1715 21.84C74.5528 22.5013 73.7422 23.0667 72.7395 23.536C71.7582 23.984 70.6808 24.304 69.5075 24.496C69.3368 26.4373 68.8995 28.1333 68.1955 29.584C67.4915 31.0347 66.5848 32.1547 65.4755 32.944C64.3662 33.7333 63.1608 34.128 61.8595 34.128ZM63.1395 31.248C63.6515 31.248 64.1635 30.96 64.6755 30.384C65.1875 29.7867 65.6355 28.9867 66.0195 27.984C66.4035 26.96 66.6808 25.8293 66.8515 24.592C66.2755 24.464 65.9875 24.016 65.9875 23.248C65.9875 22.3733 66.3182 21.7973 66.9795 21.52C66.9368 20.816 66.8302 20.336 66.6595 20.08C66.4888 19.8027 66.1902 19.664 65.7635 19.664C65.0595 19.664 64.3768 20.176 63.7155 21.2C63.0542 22.224 62.5208 23.4507 62.1155 24.88C61.7102 26.3093 61.5075 27.568 61.5075 28.656C61.5075 29.68 61.6248 30.3733 61.8595 30.736C62.0942 31.0773 62.5208 31.248 63.1395 31.248ZM74.898 34.192C73.6607 34.192 72.69 33.8827 71.986 33.264C71.3033 32.624 70.962 31.6747 70.962 30.416C70.962 29.904 71.0153 29.392 71.122 28.88L73.426 18H78.034L75.73 28.88C75.6233 29.4133 75.57 29.7973 75.57 30.032C75.57 30.736 75.9327 31.088 76.658 31.088C77.6393 31.088 78.546 30.4693 79.378 29.232C80.2313 27.9947 80.914 26.5227 81.426 24.816C81.938 23.1093 82.194 21.6373 82.194 20.4C82.1513 20.5067 82.0127 20.592 81.778 20.656C81.5433 20.6987 81.3407 20.72 81.17 20.72C80.8073 20.72 80.5193 20.5493 80.306 20.208C80.114 19.8667 80.018 19.4933 80.018 19.088C80.018 18.576 80.178 18.16 80.498 17.84C80.8393 17.52 81.3407 17.36 82.002 17.36C82.706 17.36 83.218 17.6267 83.538 18.16C83.858 18.672 84.018 19.3333 84.018 20.144C84.018 22.064 83.6873 24.1227 83.026 26.32C82.3647 28.496 81.3513 30.352 79.986 31.888C78.6207 33.424 76.9247 34.192 74.898 34.192ZM91.86 13.648L96.596 13.008L94.324 23.696C95.348 23.6107 96.2867 23.1627 97.14 22.352C98.0147 21.5413 98.6973 20.5387 99.188 19.344C99.6787 18.1493 99.924 16.976 99.924 15.824C99.924 14.544 99.5933 13.4987 98.932 12.688C98.2707 11.8773 97.2787 11.472 95.956 11.472C93.3533 11.472 91.316 12.1547 89.844 13.52C88.3933 14.8853 87.668 16.7947 87.668 19.248C87.668 20.0373 87.7427 20.592 87.892 20.912C88.0413 21.2107 88.116 21.3813 88.116 21.424C86.964 21.424 86.1 21.1893 85.524 20.72C84.9693 20.2293 84.692 19.4293 84.692 18.32C84.692 16.9547 85.2467 15.632 86.356 14.352C87.4867 13.0507 88.9267 12.0053 90.676 11.216C92.4253 10.4053 94.1747 10 95.924 10C97.6093 10 99.0173 10.288 100.148 10.864C101.279 11.44 102.111 12.208 102.644 13.168C103.199 14.1067 103.476 15.152 103.476 16.304C103.476 17.6907 103.092 19.0453 102.324 20.368C101.577 21.6907 100.5 22.7787 99.092 23.632C97.684 24.464 96.0627 24.88 94.228 24.88H94.068L92.116 34H87.508L91.86 13.648ZM106.012 34.192C104.988 34.192 104.156 33.872 103.516 33.232C102.897 32.592 102.588 31.632 102.588 30.352C102.588 29.8187 102.673 29.1253 102.844 28.272L106.268 12.24L111.004 11.6L107.324 28.88C107.238 29.2 107.196 29.5413 107.196 29.904C107.196 30.3307 107.292 30.64 107.484 30.832C107.697 31.0027 108.038 31.088 108.508 31.088C109.126 31.088 109.702 30.832 110.236 30.32C110.769 29.7867 111.153 29.104 111.388 28.272H112.732C111.942 30.576 110.929 32.144 109.692 32.976C108.454 33.7867 107.228 34.192 106.012 34.192ZM115.215 34.192C113.999 34.192 112.986 33.776 112.175 32.944C111.364 32.112 110.959 30.8107 110.959 29.04C110.959 27.4613 111.268 25.808 111.887 24.08C112.527 22.3307 113.466 20.8587 114.703 19.664C115.962 18.448 117.455 17.84 119.183 17.84C120.058 17.84 120.708 17.9893 121.135 18.288C121.562 18.5867 121.775 18.9813 121.775 19.472V19.696L122.127 18H126.735L124.431 28.88C124.346 29.2 124.303 29.5413 124.303 29.904C124.303 30.8213 124.74 31.28 125.615 31.28C126.212 31.28 126.724 31.0027 127.151 30.448C127.599 29.8933 127.951 29.168 128.207 28.272H129.551C128.762 30.576 127.78 32.144 126.607 32.976C125.455 33.7867 124.292 34.192 123.119 34.192C122.223 34.192 121.498 33.9467 120.943 33.456C120.41 32.944 120.09 32.208 119.983 31.248C119.364 32.1227 118.671 32.8373 117.903 33.392C117.156 33.9253 116.26 34.192 115.215 34.192ZM117.295 31.088C117.828 31.088 118.351 30.8427 118.863 30.352C119.396 29.84 119.759 29.1467 119.951 28.272L121.487 21.04C121.487 20.7627 121.38 20.496 121.167 20.24C120.954 19.9627 120.623 19.824 120.175 19.824C119.322 19.824 118.554 20.3253 117.871 21.328C117.188 22.3093 116.655 23.504 116.271 24.912C115.887 26.2987 115.695 27.5253 115.695 28.592C115.695 29.6587 115.844 30.3413 116.143 30.64C116.463 30.9387 116.847 31.088 117.295 31.088ZM133.211 42C132.208 42 131.323 41.6693 130.555 41.008C129.808 40.368 129.435 39.5467 129.435 38.544C129.435 37.6053 129.669 36.8373 130.139 36.24C130.608 35.6427 131.216 35.1733 131.963 34.832C132.709 34.4907 133.712 34.128 134.971 33.744L135.291 32.336C134.203 33.5733 132.901 34.192 131.387 34.192C130.363 34.192 129.531 33.872 128.891 33.232C128.272 32.592 127.963 31.632 127.963 30.352C127.963 29.8187 128.048 29.1253 128.219 28.272L130.395 18H135.003L132.699 28.88C132.635 29.136 132.603 29.4027 132.603 29.68C132.603 30.6187 132.923 31.088 133.563 31.088C134.16 31.088 134.672 30.8427 135.099 30.352C135.525 29.84 135.867 29.1467 136.123 28.272L138.299 18H142.939L139.035 36.56C138.608 38.608 137.851 40.0267 136.763 40.816C135.696 41.6053 134.512 42 133.211 42ZM132.475 39.152C132.859 39.152 133.221 38.9493 133.563 38.544C133.904 38.16 134.171 37.5307 134.363 36.656L134.747 34.768C133.616 35.152 132.741 35.6 132.123 36.112C131.504 36.624 131.195 37.2853 131.195 38.096C131.195 38.352 131.323 38.5867 131.579 38.8C131.835 39.0347 132.133 39.152 132.475 39.152Z" fill="white"/>
<g clip-path="url(#clip0_8_56)">
<path d="M19.727 2.99506V16.5179L27.4398 8.78253C25.6833 6.00139 22.9472 3.91835 19.727 2.99506Z" fill="#EDA10F"/>
<path d="M29.1963 18.9951C29.4103 18.0268 29.5341 17.0247 29.5341 16C29.5341 13.613 28.9148 11.3723 27.8339 9.42438L18.2744 18.9951H29.1963Z" fill="#EDA10F"/>
<path d="M23.0936 27.5186C25.931 25.7734 28.0704 23.0035 29.0049 19.7269H15.437L23.0936 27.5186Z" fill="#EDA10F"/>
<path d="M2.80367 13.0049C2.58974 13.9733 2.46588 14.9754 2.46588 16C2.46588 18.3983 3.09642 20.6615 4.18861 22.6094L13.7256 13.0049H2.80367Z" fill="#EDA10F"/>
<path d="M8.81634 4.53766C6.02394 6.29417 3.91838 9.03027 2.99509 12.2731H16.5292L8.81634 4.53766Z" fill="#EDA10F"/>
<path d="M13.0049 29.1963C13.9732 29.4103 14.9754 29.5341 16 29.5341C18.3307 29.5341 20.5264 28.9374 22.4518 27.9015L13.0049 18.2857V29.1963Z" fill="#EDA10F"/>
<path d="M12.2731 29.0049V15.5046L4.57144 23.2512C6.33921 26.0099 9.06405 28.0929 12.2731 29.0049Z" fill="#EDA10F"/>
<path d="M18.9951 2.80367C18.0267 2.58974 17.0246 2.46588 16 2.46588C13.6242 2.46588 11.3948 3.0739 9.45813 4.14357L18.9951 13.7143V2.80367Z" fill="#EDA10F"/>
<path d="M30.7389 9.7734C29.9282 7.87051 28.7797 6.15904 27.316 4.68402C25.8522 3.22027 24.1407 2.06052 22.2266 1.26108C20.2562 0.427868 18.1619 0 16 0C13.8381 0 11.7438 0.427868 9.7734 1.26108C7.87051 2.07178 6.15904 3.22027 4.68402 4.68402C3.22027 6.14778 2.06052 7.85925 1.26108 9.7734C0.427868 11.7438 0 13.8381 0 16C0 18.1619 0.427868 20.2562 1.26108 22.2266C2.07178 24.1295 3.22027 25.841 4.68402 27.316C6.14778 28.7797 7.85925 29.9395 9.7734 30.7389C11.7438 31.5721 13.8381 32 16 32C18.1619 32 20.2562 31.5721 22.2266 30.7389C24.1295 29.9282 25.841 28.7797 27.316 27.316C28.7797 25.8522 29.9395 24.1407 30.7389 22.2266C31.5721 20.2562 32 18.1619 32 16C32 13.8381 31.5721 11.7438 30.7389 9.7734ZM16 30.5475C7.97185 30.5475 1.4525 24.0394 1.4525 16C1.4525 7.96059 7.97185 1.4525 16 1.4525C24.0281 1.4525 30.5475 7.96059 30.5475 16C30.5475 24.0394 24.0281 30.5475 16 30.5475Z" fill="#EDA10F"/>
</g>
<defs>
<clipPath id="clip0_8_56">
<rect width="32" height="32" fill="white"/>
</clipPath>
</defs>
</svg>
