<svg width="219" height="64" viewBox="0 0 219 64" fill="none" xmlns="http://www.w3.org/2000/svg">
<g clip-path="url(#clip0_50_16)">
<path d="M64.7382 18.31C62.2553 19.1227 60.3276 20.4719 58.9554 22.3573C57.6158 24.2102 56.9461 26.5183 56.9461 29.2815C56.9461 30.5168 57.0605 31.3619 57.2892 31.8171C57.5178 32.2722 57.6322 32.5485 57.6322 32.646C54.1363 32.646 52.3885 31.1669 52.3885 28.2087C52.3885 26.1932 53.1562 24.1778 54.6918 22.1622C56.26 20.1142 58.2529 18.4563 60.6707 17.1885C63.121 15.8882 65.555 15.238 67.9727 15.238C69.1815 15.238 70.4231 15.4655 71.6972 15.9207L70.5701 41.6182L81.3516 15.9207H88.4086L83.2629 51.8095H76.2059L79.3423 29.9154L70.129 51.8095H63.4151L64.3952 29.8178L56.211 51.8095H52.2905L64.7382 18.31ZM94.7359 52.0045C92.3182 52.0045 90.4069 51.3869 89.0021 50.1516C87.5972 48.9162 86.8948 46.9657 86.8948 44.3001C86.8948 42.0895 87.3522 39.6353 88.267 36.9371C89.1817 34.2389 90.6519 31.9146 92.6776 29.9641C94.7033 27.9812 97.2516 26.9897 100.323 26.9897C104.505 26.9897 106.596 29.5903 106.596 34.7916V34.8403C106.694 34.8728 106.873 34.8891 107.135 34.8891C108.213 34.8891 109.454 34.6128 110.859 34.0601C112.264 33.475 113.538 32.776 114.682 31.9634L115.123 33.2799C114.175 34.2876 112.934 35.1492 111.398 35.8643C109.895 36.547 108.245 37.0346 106.449 37.3272C106.187 40.2854 105.517 42.8697 104.439 45.0803C103.361 47.2909 101.973 48.9976 100.274 50.2003C98.5748 51.4031 96.7288 52.0045 94.7359 52.0045ZM96.6962 47.6159C97.4803 47.6159 98.2644 47.1771 99.0485 46.2994C99.8326 45.3892 100.519 44.1702 101.107 42.6422C101.695 41.0818 102.12 39.3589 102.381 37.4735C101.499 37.2784 101.058 36.5958 101.058 35.4255C101.058 34.0926 101.564 33.2149 102.577 32.7923C102.512 31.7196 102.348 30.9881 102.087 30.598C101.826 30.1755 101.368 29.9641 100.715 29.9641C99.6366 29.9641 98.591 30.7443 97.5783 32.3047C96.5655 33.8651 95.7486 35.7343 95.1279 37.9123C94.5072 40.0903 94.1968 42.0083 94.1968 43.6662C94.1968 45.2266 94.3764 46.2831 94.7359 46.8358C95.0953 47.3558 95.7486 47.6159 96.6962 47.6159ZM114.704 52.102C112.809 52.102 111.322 51.6307 110.244 50.6879C109.199 49.7127 108.676 48.2662 108.676 46.3481C108.676 45.5679 108.758 44.7878 108.921 44.0076L112.45 27.4285H119.507L115.978 44.0076C115.815 44.8202 115.733 45.4054 115.733 45.763C115.733 46.8358 116.289 47.3721 117.399 47.3721C118.902 47.3721 120.291 46.4294 121.565 44.5439C122.872 42.6585 123.917 40.4155 124.701 37.8148C125.485 35.2141 125.878 32.9711 125.878 31.0857C125.812 31.2482 125.6 31.3782 125.24 31.4758C124.881 31.5408 124.571 31.5733 124.309 31.5733C123.754 31.5733 123.313 31.3132 122.986 30.7931C122.692 30.273 122.545 29.704 122.545 29.0864C122.545 28.3062 122.79 27.6723 123.28 27.1847C123.803 26.6971 124.571 26.4533 125.583 26.4533C126.662 26.4533 127.446 26.8597 127.936 27.6723C128.426 28.4525 128.671 29.4602 128.671 30.6956C128.671 33.6213 128.164 36.7583 127.152 40.1066C126.139 43.4224 124.587 46.2506 122.496 48.5912C120.405 50.9318 117.808 52.102 114.704 52.102ZM140.681 20.7969L147.934 19.8217L144.454 36.1081C146.022 35.9782 147.46 35.2955 148.767 34.0601C150.106 32.8248 151.152 31.297 151.903 29.4765C152.655 27.656 153.03 25.8681 153.03 24.1127C153.03 22.1622 152.524 20.5694 151.511 19.334C150.498 18.0987 148.979 17.4811 146.954 17.4811C142.968 17.4811 139.848 18.5214 137.593 20.6018C135.372 22.6823 134.261 25.5919 134.261 29.3302C134.261 30.533 134.375 31.3782 134.604 31.8658C134.832 32.321 134.947 32.581 134.947 32.646C133.183 32.646 131.859 32.2884 130.977 31.5733C130.128 30.8255 129.703 29.6065 129.703 27.9161C129.703 25.8357 130.553 23.8201 132.252 21.8697C133.983 19.8867 136.188 18.2937 138.867 17.091C141.546 15.8556 144.226 15.238 146.905 15.238C149.486 15.238 151.642 15.6769 153.374 16.5546C155.106 17.4323 156.38 18.6026 157.196 20.0655C158.046 21.4959 158.47 23.0887 158.47 24.8441C158.47 26.9572 157.882 29.0214 156.706 31.0369C155.562 33.0524 153.913 34.7103 151.756 36.0106C149.6 37.2784 147.117 37.9123 144.307 37.9123H144.062L141.073 51.8095H134.016L140.681 20.7969ZM162.354 52.102C160.786 52.102 159.512 51.6144 158.531 50.6392C157.584 49.6639 157.11 48.2011 157.11 46.2506C157.11 45.438 157.24 44.3814 157.502 43.0811L162.746 18.6514L169.999 17.6761L164.363 44.0076C164.232 44.4952 164.167 45.0153 164.167 45.5679C164.167 46.2182 164.314 46.6895 164.608 46.982C164.935 47.2422 165.457 47.3721 166.177 47.3721C167.123 47.3721 168.005 46.982 168.823 46.2018C169.639 45.3892 170.227 44.3489 170.587 43.0811H172.646C171.436 46.5919 169.884 48.9813 167.99 50.2491C166.094 51.4844 164.216 52.102 162.354 52.102ZM176.448 52.102C174.586 52.102 173.035 51.4681 171.792 50.2003C170.55 48.9325 169.93 46.9496 169.93 44.2514C169.93 41.8457 170.403 39.3264 171.351 36.6933C172.332 34.0277 173.77 31.7846 175.664 29.9641C177.592 28.1112 179.879 27.1847 182.525 27.1847C183.865 27.1847 184.861 27.4122 185.514 27.8674C186.168 28.3225 186.495 28.9238 186.495 29.6716V30.0129L187.034 27.4285H194.091L190.562 44.0076C190.432 44.4952 190.366 45.0153 190.366 45.5679C190.366 46.9657 191.035 47.6647 192.375 47.6647C193.29 47.6647 194.074 47.2422 194.728 46.3969C195.414 45.5516 195.953 44.4464 196.345 43.0811H198.403C197.195 46.5919 195.691 48.9813 193.895 50.2491C192.13 51.4844 190.349 52.102 188.553 52.102C187.181 52.102 186.07 51.7282 185.22 50.9805C184.404 50.2003 183.914 49.0788 183.75 47.6159C182.802 48.9488 181.741 50.0377 180.565 50.883C179.421 51.6956 178.049 52.102 176.448 52.102ZM179.634 47.3721C180.45 47.3721 181.251 46.9983 182.035 46.2506C182.851 45.4704 183.407 44.414 183.701 43.0811L186.054 32.0609C186.054 31.6383 185.89 31.2319 185.563 30.8418C185.237 30.4193 184.73 30.2079 184.044 30.2079C182.738 30.2079 181.562 30.9718 180.516 32.4998C179.47 33.9951 178.653 35.8156 178.065 37.9611C177.477 40.0742 177.183 41.9433 177.183 43.5687C177.183 45.1942 177.411 46.2343 177.869 46.6895C178.359 47.1446 178.948 47.3721 179.634 47.3721ZM204.008 63.9999C202.472 63.9999 201.117 63.496 199.941 62.4883C198.797 61.5131 198.226 60.2616 198.226 58.7337C198.226 57.3033 198.584 56.133 199.304 55.2228C200.022 54.3126 200.953 53.5974 202.097 53.0773C203.24 52.5572 204.776 52.0045 206.704 51.4194L207.194 49.2738C205.528 51.1593 203.534 52.102 201.215 52.102C199.647 52.102 198.373 51.6144 197.393 50.6392C196.445 49.6639 195.971 48.2011 195.971 46.2506C195.971 45.438 196.101 44.3814 196.363 43.0811L199.696 27.4285H206.753L203.224 44.0076C203.126 44.3977 203.077 44.8041 203.077 45.2266C203.077 46.657 203.567 47.3721 204.548 47.3721C205.462 47.3721 206.246 46.9983 206.9 46.2506C207.552 45.4704 208.076 44.414 208.468 43.0811L211.801 27.4285H218.907L212.928 55.7104C212.274 58.8312 211.114 60.993 209.448 62.1958C207.814 63.3985 206.001 63.9999 204.008 63.9999ZM202.881 59.6601C203.469 59.6601 204.024 59.3513 204.548 58.7337C205.07 58.1485 205.479 57.1896 205.773 55.8567L206.361 52.9798C204.629 53.5649 203.289 54.2476 202.342 55.0278C201.394 55.8079 200.921 56.8156 200.921 58.051C200.921 58.4411 201.117 58.7987 201.509 59.1238C201.901 59.4814 202.358 59.6601 202.881 59.6601Z" fill="white"/>
<path d="M30.2113 4.56396V25.1703L42.0232 13.383C39.3332 9.14504 35.1429 5.97088 30.2113 4.56396Z" fill="#EDA10F"/>
<path d="M44.7132 28.9447C45.0409 27.4692 45.2305 25.9422 45.2305 24.3809C45.2305 20.7434 44.2821 17.329 42.6267 14.3608L27.9867 28.9447H44.7132Z" fill="#EDA10F"/>
<path d="M35.3671 41.9332C39.7125 39.2739 42.989 35.0531 44.4201 30.0603H23.6413L35.3671 41.9332Z" fill="#EDA10F"/>
<path d="M4.29374 19.8169C3.96612 21.2924 3.77643 22.8194 3.77643 24.3809C3.77643 28.0354 4.74208 31.4841 6.41474 34.4523L21.0203 19.8169H4.29374Z" fill="#EDA10F"/>
<path d="M13.5019 6.91455C9.22547 9.59114 6.00087 13.7604 4.58688 18.7018H25.3139L13.5019 6.91455Z" fill="#EDA10F"/>
<path d="M19.9166 44.4896C21.3995 44.8155 22.9344 45.0043 24.5035 45.0043C28.0729 45.0043 31.4355 44.0949 34.3842 42.5164L19.9166 27.8638V44.4896Z" fill="#EDA10F"/>
<path d="M18.7959 44.198V23.626L7.00101 35.4305C9.70829 39.6341 13.8813 42.8083 18.7959 44.198Z" fill="#EDA10F"/>
<path d="M29.0904 4.27205C27.6073 3.94606 26.0726 3.75732 24.5035 3.75732C20.865 3.75732 17.4508 4.68383 14.4848 6.3138L29.0904 20.8977V4.27205Z" fill="#EDA10F"/>
<path d="M47.0757 14.8928C45.8341 11.9932 44.0752 9.3852 41.8336 7.13755C39.5918 4.90708 36.9707 3.13984 34.0393 1.92165C31.0217 0.651989 27.8144 0 24.5035 0C21.1926 0 17.9853 0.651989 14.9677 1.92165C12.0534 3.157 9.43238 4.90708 7.17343 7.13755C4.93174 9.36805 3.15562 11.976 1.9313 14.8928C0.655266 17.8953 0 21.0866 0 24.381C0 27.6753 0.655266 30.8666 1.9313 33.8691C3.17287 36.7688 4.93174 39.3768 7.17343 41.6244C9.41513 43.8548 12.0362 45.6221 14.9677 46.8402C17.9853 48.1099 21.1926 48.7619 24.5035 48.7619C27.8144 48.7619 31.0217 48.1099 34.0393 46.8402C36.9536 45.6049 39.5747 43.8548 41.8336 41.6244C44.0752 39.3938 45.8514 36.7858 47.0757 33.8691C48.3517 30.8666 49.007 27.6753 49.007 24.381C49.007 21.0866 48.3517 17.8953 47.0757 14.8928ZM24.5035 46.5486C12.2086 46.5486 2.22446 36.6315 2.22446 24.381C2.22446 12.1304 12.2086 2.21333 24.5035 2.21333C36.7983 2.21333 46.7825 12.1304 46.7825 24.381C46.7825 36.6315 36.7983 46.5486 24.5035 46.5486Z" fill="#EDA10F"/>
</g>
<defs>
<clipPath id="clip0_50_16">
<rect width="219" height="64" fill="white"/>
</clipPath>
</defs>
</svg>
