<svg width="35" height="35" viewBox="0 0 35 35" fill="none" xmlns="http://www.w3.org/2000/svg">
<g clip-path="url(#clip0_53_127)">
<path fill-rule="evenodd" clip-rule="evenodd" d="M0.820944 3.9304C0 5.51078 0 7.58705 0 11.7396V23.2604C0 27.413 0 29.4892 0.820944 31.0696C1.51274 32.4014 2.59862 33.4873 3.9304 34.1791C5.51078 35 7.58705 35 11.7396 35H23.2604C27.413 35 29.4892 35 31.0696 34.1791C32.4014 33.4873 33.4873 32.4014 34.1791 31.0696C35 29.4892 35 27.413 35 23.2604V11.7396C35 7.58705 35 5.51078 34.1791 3.9304C33.4873 2.59862 32.4014 1.51274 31.0696 0.820944C29.4892 0 27.413 0 23.2604 0H11.7396C7.58705 0 5.51078 0 3.9304 0.820944C2.59862 1.51274 1.51274 2.59862 0.820944 3.9304ZM10.7087 7.13094C13.2128 5.49073 16.2257 4.81192 19.1912 5.21986L19.1937 5.2211C22.1588 5.63017 24.8757 7.09822 26.8428 9.35417C28.8098 11.6101 29.8943 14.5016 29.8958 17.4947C29.8983 19.1228 29.5795 20.7353 28.9579 22.24C28.3363 23.7446 27.424 25.1119 26.2732 26.2635C25.1224 27.4151 23.7557 28.3284 22.2515 28.9511C20.7473 29.5738 19.135 29.8936 17.5069 29.8923C16.3122 29.8972 15.1236 29.7237 13.9796 29.3767C14.5286 28.5634 14.9542 27.6734 15.2426 26.7356C15.3839 26.1927 16.1002 23.3223 16.1002 23.3223C16.4365 23.8147 16.8914 24.2143 17.4231 24.4842C17.9547 24.7541 18.5458 24.8856 19.1417 24.8666C23.1288 24.8666 25.8269 21.224 25.8269 16.3793C25.8269 12.6983 22.6987 9.25653 17.994 9.25653C12.0821 9.25653 9.12744 13.4804 9.12744 17.0089C9.12744 19.1642 9.93552 21.0518 11.6508 21.7384C11.712 21.7697 11.7796 21.7862 11.8483 21.7866C11.917 21.787 11.9849 21.7712 12.0464 21.7406C12.1079 21.7099 12.1613 21.6653 12.2024 21.6102C12.2435 21.5552 12.2711 21.4912 12.2829 21.4236C12.3399 21.224 12.4837 20.6799 12.5407 20.4519C12.5862 20.3312 12.5913 20.1989 12.5551 20.075C12.5188 19.9512 12.4433 19.8425 12.3399 19.7653C11.7865 19.0749 11.5013 18.2078 11.5368 17.3237C11.5281 16.5267 11.6816 15.7362 11.9877 15.0003C12.2939 14.2644 12.7464 13.5984 13.3179 13.0427C13.8893 12.487 14.5677 12.0533 15.3119 11.7678C16.0561 11.4824 16.8505 11.3511 17.647 11.3821C20.976 11.3821 22.7817 13.4246 22.7817 16.1512C22.7817 19.7083 21.2053 22.7212 18.8529 22.7212C18.5535 22.7365 18.2548 22.6812 17.9807 22.5599C17.7066 22.4386 17.4648 22.2545 17.2749 22.0226C17.0849 21.7907 16.9521 21.5174 16.8872 21.2248C16.8222 20.9322 16.8269 20.6284 16.9009 20.3379C17.0374 19.7603 17.2193 19.1689 17.3955 18.5964C17.7024 17.599 17.9915 16.6591 17.9915 15.9505C18.0225 15.7151 18.0025 15.4759 17.9327 15.2489C17.863 15.022 17.7452 14.8128 17.5874 14.6355C17.4296 14.4582 17.2355 14.3169 17.0182 14.2213C16.8009 14.1257 16.5656 14.078 16.3283 14.0815C15.0071 14.0815 13.9449 15.4547 13.9449 17.2952C13.9353 17.9681 14.0723 18.6351 14.3465 19.2497C14.3465 19.2497 12.9695 24.9806 12.7403 26.0205C12.5321 26.9525 12.4641 27.9103 12.5382 28.8624C9.79517 27.6639 7.57836 25.5134 6.29714 22.808C5.01592 20.1026 4.75682 17.025 5.56768 14.1435C6.37855 11.262 8.20461 8.77115 10.7087 7.13094Z" fill="#EDA10F"/>
</g>
<defs>
<clipPath id="clip0_53_127">
<rect width="35" height="35" fill="white"/>
</clipPath>
</defs>
</svg>
