<svg width="35" height="35" viewBox="0 0 35 35" fill="none" xmlns="http://www.w3.org/2000/svg">
<path fill-rule="evenodd" clip-rule="evenodd" d="M0.820944 3.9304C0 5.51078 0 7.58705 0 11.7396V23.2604C0 27.413 0 29.4892 0.820944 31.0696C1.51274 32.4014 2.59862 33.4873 3.9304 34.1791C5.51078 35 7.58705 35 11.7396 35H23.2604C27.413 35 29.4892 35 31.0696 34.1791C32.4014 33.4873 33.4873 32.4014 34.1791 31.0696C35 29.4892 35 27.413 35 23.2604V11.7396C35 7.58705 35 5.51078 34.1791 3.9304C33.4873 2.59862 32.4014 1.51274 31.0696 0.820944C29.4892 0 27.413 0 23.2604 0H11.7396C7.58705 0 5.51078 0 3.9304 0.820944C2.59862 1.51274 1.51274 2.59862 0.820944 3.9304ZM27.2259 13.8917C27.2259 13.6731 27.2231 13.4546 27.2146 13.236C28.12 12.5305 28.9038 11.6463 29.5265 10.6427C28.6965 11.0401 27.8015 11.3082 26.8632 11.4274C27.8222 10.8114 28.5561 9.82785 28.9038 8.65532C28.0069 9.23165 27.0158 9.64896 25.9579 9.86757C25.1129 8.89377 23.9089 8.28755 22.5759 8.28755C20.0153 8.28755 17.9399 10.5333 17.9399 13.3056C17.9399 13.6931 17.9805 14.0806 18.0596 14.4482C14.2075 14.2396 10.7906 12.2423 8.5051 9.20165C8.10378 9.9469 7.8758 10.8114 7.8758 11.7256C7.8758 13.4645 8.69446 15.0047 9.93988 15.9089C9.17963 15.8791 8.46367 15.6507 7.83813 15.283V15.3427C7.83813 17.7772 9.43681 19.8042 11.5593 20.2613C11.1674 20.3805 10.7585 20.4401 10.3374 20.4401C10.0388 20.4401 9.74677 20.4102 9.46321 20.3505C10.0539 22.3379 11.7666 23.7986 13.7948 23.8284C12.2084 25.1798 10.2084 25.9848 8.03691 25.9848C7.66291 25.9848 7.29455 25.9549 6.93186 25.9152C8.98369 27.3361 11.4189 28.1708 14.0379 28.1708C22.5636 28.1708 27.2259 20.5195 27.2259 13.8917Z" fill="#EDA10F"/>
</svg>
