<svg width="35" height="35" viewBox="0 0 35 35" fill="none" xmlns="http://www.w3.org/2000/svg">
<path fill-rule="evenodd" clip-rule="evenodd" d="M0.820944 3.9304C0 5.51078 0 7.58705 0 11.7396V23.2604C0 27.413 0 29.4892 0.820944 31.0696C1.51274 32.4014 2.59862 33.4873 3.9304 34.1791C5.51078 35 7.58705 35 11.7396 35H23.2604C27.413 35 29.4892 35 31.0696 34.1791C32.4014 33.4873 33.4873 32.4014 34.1791 31.0696C35 29.4892 35 27.413 35 23.2604V11.7396C35 7.58705 35 5.51078 34.1791 3.9304C33.4873 2.59862 32.4014 1.51274 31.0696 0.820944C29.4892 0 27.413 0 23.2604 0H11.7396C7.58705 0 5.51078 0 3.9304 0.820944C2.59862 1.51274 1.51274 2.59862 0.820944 3.9304ZM26.706 8.44329C24.5011 6.23693 21.6144 4.95939 18.5163 4.80714L17.8941 4.79174C11.0279 4.79174 5.43973 10.3769 5.43697 17.2417C5.43607 19.4362 6.00969 21.578 7.09981 23.4662L5.33252 29.9182L11.9362 28.1868C13.7557 29.1788 15.8042 29.7015 17.8891 29.7023H17.8942C24.7597 29.7023 30.3483 24.1166 30.3512 17.2516C30.3524 13.9249 29.0579 10.7966 26.706 8.44329ZM12.6202 26.157L12.2421 25.9328L8.32345 26.9602L9.36941 23.1414L9.12323 22.7498C8.0868 21.1022 7.53943 19.1979 7.54021 17.2424C7.54249 11.5367 12.1872 6.89466 17.8983 6.89466C20.6638 6.89556 23.2634 7.97346 25.2182 9.92963C27.173 11.8857 28.2489 14.4857 28.2479 17.2509C28.2456 22.957 23.6009 27.5995 17.8942 27.5995H17.89C16.0321 27.5988 14.2099 27.0999 12.6202 26.157ZM23.7436 19.9322C23.9607 20.037 24.1073 20.1078 24.1699 20.2123C24.2478 20.3421 24.2478 20.9649 23.9884 21.6918C23.729 22.4184 22.4855 23.0817 21.8875 23.171C21.3512 23.2511 20.6727 23.2845 19.927 23.0477C19.475 22.9043 18.8952 22.713 18.1526 22.3924C15.2347 21.133 13.2628 18.3064 12.89 17.7721C12.8639 17.7346 12.8456 17.7084 12.8354 17.6948L12.8327 17.6912C12.6672 17.4705 11.5645 15.9993 11.5645 14.4766C11.5645 13.0434 12.2689 12.2922 12.593 11.9466C12.6152 11.9229 12.6356 11.9012 12.6539 11.8812C12.9392 11.5697 13.2764 11.4919 13.4839 11.4919C13.6914 11.4919 13.8991 11.4939 14.0804 11.5029C14.1028 11.504 14.126 11.5039 14.1501 11.5037C14.3315 11.5027 14.5576 11.5014 14.7808 12.0369C14.8665 12.2429 14.992 12.5482 15.1243 12.8702C15.3922 13.5221 15.6883 14.2427 15.7404 14.3469C15.8182 14.5027 15.8701 14.6843 15.7664 14.8919C15.7508 14.9232 15.7363 14.9526 15.7225 14.9808C15.6446 15.1397 15.5873 15.2567 15.4551 15.411C15.4033 15.4715 15.3497 15.5367 15.296 15.602C15.1888 15.7325 15.0815 15.863 14.9882 15.956C14.8324 16.1111 14.6702 16.2795 14.8517 16.5909C15.0333 16.9024 15.658 17.9211 16.5833 18.7461C17.5781 19.6329 18.4427 20.0078 18.8808 20.1977C18.9663 20.2348 19.0355 20.2648 19.0864 20.2902C19.3976 20.4459 19.5791 20.4199 19.7607 20.2123C19.9423 20.0047 20.5388 19.3039 20.7463 18.9925C20.9537 18.6811 21.1613 18.733 21.4466 18.8367C21.7319 18.9406 23.2622 19.6932 23.5734 19.8489C23.6342 19.8793 23.6909 19.9068 23.7436 19.9322Z" fill="#EDA10F"/>
</svg>
